<svg width="37" height="35" viewBox="0 0 37 35" fill="none" xmlns="http://www.w3.org/2000/svg">
<path d="M16.9461 30.625V27.4896C15.6364 27.1979 14.5062 26.6389 13.5553 25.8125C12.6034 24.9861 11.9051 23.8194 11.4603 22.3125L14.2032 21.2188C14.5739 22.3854 15.1239 23.2726 15.8534 23.8802C16.5819 24.4878 17.5391 24.7917 18.7253 24.7917C19.7384 24.7917 20.5973 24.5671 21.3021 24.1179C22.0058 23.6678 22.3577 22.9688 22.3577 22.0208C22.3577 21.1701 22.0859 20.4954 21.5423 19.9967C20.9986 19.4989 19.7384 18.934 17.7615 18.3021C15.6364 17.6458 14.1785 16.8622 13.3878 15.9512C12.597 15.0393 12.2016 13.9271 12.2016 12.6146C12.2016 11.0347 12.7206 9.80729 13.7584 8.93229C14.7963 8.05729 15.8588 7.55903 16.9461 7.4375V4.375H19.9114V7.4375C21.1469 7.63194 22.1665 8.07528 22.9701 8.7675C23.7727 9.46069 24.3593 10.3056 24.7299 11.3021L21.9871 12.4688C21.6905 11.691 21.2705 11.1076 20.7268 10.7188C20.1832 10.3299 19.4419 10.1354 18.5029 10.1354C17.4156 10.1354 16.5878 10.3726 16.0194 10.8471C15.4511 11.3206 15.1669 11.9097 15.1669 12.6146C15.1669 13.4167 15.5376 14.0486 16.2789 14.5104C17.0202 14.9722 18.3052 15.4583 20.1338 15.9688C21.8388 16.4549 23.1302 17.2263 24.0079 18.2831C24.8846 19.3409 25.323 20.5625 25.323 21.9479C25.323 23.6736 24.8041 24.9861 23.7662 25.8854C22.7284 26.7847 21.4434 27.3438 19.9114 27.5625V30.625H16.9461Z" fill="black"/>
</svg>
