<svg width="37" height="35" viewBox="0 0 37 35" fill="none" xmlns="http://www.w3.org/2000/svg">
<path d="M18.675 18.9583C19.095 18.9583 19.4474 18.8183 19.7321 18.5383C20.0158 18.2593 20.1576 17.9132 20.1576 17.5V13.125C20.1576 12.7118 20.0158 12.3652 19.7321 12.0852C19.4474 11.8062 19.095 11.6667 18.675 11.6667C18.2549 11.6667 17.903 11.8062 17.6193 12.0852C17.3346 12.3652 17.1923 12.7118 17.1923 13.125V17.5C17.1923 17.9132 17.3346 18.2593 17.6193 18.5383C17.903 18.8183 18.2549 18.9583 18.675 18.9583ZM18.675 24.7917C19.095 24.7917 19.4474 24.6517 19.7321 24.3717C20.0158 24.0926 20.1576 23.7465 20.1576 23.3333C20.1576 22.9201 20.0158 22.5735 19.7321 22.2935C19.4474 22.0145 19.095 21.875 18.675 21.875C18.2549 21.875 17.903 22.0145 17.6193 22.2935C17.3346 22.5735 17.1923 22.9201 17.1923 23.3333C17.1923 23.7465 17.3346 24.0926 17.6193 24.3717C17.903 24.6517 18.2549 24.7917 18.675 24.7917ZM9.77912 32.0833C8.96367 32.0833 8.26584 31.798 7.68563 31.2273C7.10444 30.6556 6.81384 29.9687 6.81384 29.1667V12.8698C6.81384 12.4809 6.88797 12.11 7.03624 11.7571C7.1845 11.4051 7.39454 11.0955 7.66636 10.8281L14.8572 3.7552C15.129 3.48784 15.4438 3.28124 15.8016 3.13541C16.1604 2.98957 16.5375 2.91666 16.9329 2.91666H27.5708C28.3862 2.91666 29.0846 3.202 29.6658 3.7727C30.246 4.34436 30.5361 5.03124 30.5361 5.83332V29.1667C30.5361 29.9687 30.246 30.6556 29.6658 31.2273C29.0846 31.798 28.3862 32.0833 27.5708 32.0833H9.77912Z" fill="black"/>
</svg>
