<svg width="37" height="35" viewBox="0 0 37 35" fill="none" xmlns="http://www.w3.org/2000/svg">
<path d="M26.1256 2.91666C26.661 2.91666 27.1912 3.02039 27.6859 3.22193C28.1805 3.42347 28.63 3.71888 29.0086 4.09128C29.3872 4.46368 29.6875 4.90579 29.8924 5.39235C30.0974 5.87892 30.2028 6.40042 30.2028 6.92707V28.0729C30.2028 28.5996 30.0974 29.1211 29.8924 29.6076C29.6875 30.0942 29.3872 30.5363 29.0086 30.9087C28.63 31.2811 28.1805 31.5765 27.6859 31.778C27.1912 31.9796 26.661 32.0833 26.1256 32.0833H10.5578C10.0223 32.0833 9.49198 31.9795 8.99721 31.7779C8.50243 31.5763 8.0529 31.2807 7.67427 30.9082C7.29564 30.5356 6.99534 30.0934 6.79053 29.6066C6.58571 29.1199 6.4804 28.5982 6.48059 28.0714V6.92707C6.48059 5.86344 6.91016 4.84338 7.67479 4.09128C8.43943 3.33918 9.47649 2.91666 10.5578 2.91666H10.9893V14.8269C10.9893 15.9177 12.1606 16.3056 12.9449 15.906L13.0783 15.8258L16.1815 14.0802L19.3543 15.8739C20.0156 16.3231 21.224 16.0198 21.3559 15.0135L21.3678 14.8269V2.91666H26.127H26.1256ZM19.1438 2.91666V13.2358L16.7405 11.8767C16.5542 11.7965 16.3522 11.7578 16.1489 11.7634C15.9457 11.7689 15.7462 11.8185 15.5647 11.9087L15.4061 12.0006L13.2133 13.2344V2.91666H19.1438Z" fill="black"/>
</svg>
