<svg width="37" height="35" viewBox="0 0 37 35" fill="none" xmlns="http://www.w3.org/2000/svg">
<path fill-rule="evenodd" clip-rule="evenodd" d="M5.33118 4.375H28.3121V8.02083H26.8294V5.83333H6.81382V22.6042H22.6684V24.0625H5.33118V4.375ZM27.5708 13.8542C28.1606 13.8542 28.7263 13.6237 29.1433 13.2135C29.5604 12.8032 29.7947 12.2468 29.7947 11.6667C29.7947 11.0865 29.5604 10.5301 29.1433 10.1199C28.7263 9.70963 28.1606 9.47917 27.5708 9.47917C26.9809 9.47917 26.4153 9.70963 25.9982 10.1199C25.5811 10.5301 25.3468 11.0865 25.3468 11.6667C25.3468 12.2468 25.5811 12.8032 25.9982 13.2135C26.4153 13.6237 26.9809 13.8542 27.5708 13.8542ZM29.0764 15.3198C30.0394 15.3198 30.8014 15.7456 31.3003 16.4033C31.7666 17.0195 31.9638 17.7815 32.0083 18.4851C32.0519 19.2069 31.9519 19.9301 31.714 20.6143C31.4916 21.2486 31.1157 21.9049 30.536 22.3548V29.5312C30.5366 29.8061 30.4319 30.071 30.2429 30.2733C30.0539 30.4757 29.7943 30.6007 29.5159 30.6234C29.2375 30.6461 28.9606 30.5648 28.7403 30.3959C28.5199 30.2269 28.3724 29.9825 28.3269 29.7114L27.3706 24.0625H27.1497L26.0688 29.7325C26.0175 30.0001 25.8666 30.2392 25.6455 30.4032C25.4244 30.5671 25.1491 30.644 24.8734 30.6188C24.5977 30.5936 24.3415 30.4682 24.1548 30.2671C23.9682 30.066 23.8645 29.8036 23.8642 29.5312V19.1282C23.7159 19.3503 23.5696 19.5737 23.4253 19.7983L23.3675 19.888L23.3527 19.9114L23.3489 19.9179C23.249 20.0757 23.1099 20.2058 22.9446 20.296C22.7794 20.3862 22.5935 20.4335 22.4045 20.4334H18.6979C18.403 20.4334 18.1202 20.3182 17.9116 20.1131C17.7031 19.908 17.5859 19.6298 17.5859 19.3397C17.5859 19.0496 17.7031 18.7714 17.9116 18.5663C18.1202 18.3612 18.403 18.2459 18.6979 18.2459H21.7944C21.9745 17.9718 22.2118 17.6159 22.4608 17.2586C22.7203 16.886 23.0065 16.4916 23.2615 16.1824C23.3853 16.0315 23.5239 15.874 23.6633 15.7449C23.7315 15.6815 23.8264 15.5991 23.942 15.5261C24.1461 15.3944 24.3843 15.323 24.6285 15.3205H29.0764V15.3198Z" fill="black"/>
</svg>
